# xmcd
#
# Track frame offsets: 
#        150
#        14142
#        48462
#        65240
#        100325
#        139922
#        164060
#        199280
#        214802
#        243650
#        271625
#
# Disc length: 3808 seconds
#
# Revision: 0
# Processed by: cddbd v1.5.1PL2 Copyright (c) Steve Scherf et al.
# Submitted via: ExactAudioCopy v0.95b4
#
DISCID=b30ede0b
DTITLE=Jimi Hendrix - Blues
DYEAR=1900
DGENRE=Blues
TTITLE0=Hear My Train A Comin' - (acoustic)
TTITLE1=Born Under A Bad Sign
TTITLE2=Red House
TTITLE3=Catfish Blues
TTITLE4=Voodoo Child Blues
TTITLE5=Mannish Boy
TTITLE6=Once I Had A Woman
TTITLE7=Bleeding Heart
TTITLE8=Jelly 292
TTITLE9=Electric Church Red House
TTITLE10=Hear My Train A Comin' - (electric)
EXTD=
EXTT0=
EXTT1=
EXTT2=
EXTT3=
EXTT4=
EXTT5=
EXTT6=
EXTT7=
EXTT8=
EXTT9=
EXTT10=
PLAYORDER=
